<?xml version="1.0" encoding="UTF-8"?><svg id="uuid-27633999-c40f-46ff-a724-9b02b106a344" xmlns="http://www.w3.org/2000/svg" viewBox="0 0 387.39 87.15"><g id="uuid-63a588e7-e32b-4faf-bcd6-22efbb6c9577"><path d="M108.83,53.18l-6.15-10.69h-3.35v10.69h-4.38v-26.73h9.23c2.05,0,3.79.36,5.21,1.08,1.42.72,2.49,1.68,3.19,2.88.71,1.21,1.06,2.55,1.06,4.04,0,1.74-.51,3.33-1.52,4.75-1.01,1.42-2.57,2.39-4.67,2.9l6.61,11.07h-5.23ZM99.33,38.99h4.85c1.64,0,2.88-.41,3.71-1.23.83-.82,1.25-1.92,1.25-3.31s-.41-2.47-1.23-3.25c-.82-.78-2.06-1.17-3.73-1.17h-4.85v8.96Z" style="fill:#546a7b;"/><path d="M136.59,44.22h-16.19c.13,1.69.76,3.05,1.88,4.08,1.13,1.03,2.51,1.54,4.15,1.54,2.36,0,4.02-.99,5-2.96h4.73c-.64,1.95-1.8,3.54-3.48,4.79-1.68,1.24-3.76,1.87-6.25,1.87-2.03,0-3.84-.46-5.44-1.37-1.6-.91-2.86-2.19-3.77-3.85-.91-1.65-1.37-3.57-1.37-5.75s.44-4.1,1.33-5.75c.88-1.65,2.13-2.93,3.73-3.83,1.6-.9,3.44-1.35,5.52-1.35s3.78.44,5.35,1.31c1.56.87,2.78,2.1,3.65,3.67.87,1.58,1.31,3.39,1.31,5.44,0,.79-.05,1.51-.15,2.15ZM132.17,40.68c-.03-1.62-.6-2.91-1.73-3.88-1.13-.97-2.53-1.46-4.19-1.46-1.51,0-2.81.48-3.88,1.44-1.08.96-1.72,2.26-1.92,3.9h11.73Z" style="fill:#546a7b;"/><path d="M139,36.83c.88-1.64,2.09-2.92,3.61-3.83,1.52-.91,3.21-1.37,5.06-1.37,1.67,0,3.12.33,4.36.98,1.24.65,2.24,1.47,2.98,2.44v-3.08h4.42v21.19h-4.42v-3.15c-.74,1-1.76,1.83-3.04,2.5-1.28.67-2.74,1-4.38,1-1.82,0-3.49-.47-5-1.4-1.51-.94-2.71-2.24-3.6-3.92-.88-1.68-1.33-3.58-1.33-5.71s.44-4.01,1.33-5.65ZM154.11,38.76c-.6-1.08-1.39-1.9-2.36-2.46-.97-.56-2.03-.85-3.15-.85s-2.18.28-3.15.83c-.97.55-1.76,1.36-2.36,2.42-.6,1.06-.9,2.33-.9,3.79s.3,2.74.9,3.85c.6,1.1,1.4,1.94,2.38,2.52.99.58,2.03.87,3.13.87s2.18-.28,3.15-.85c.97-.56,1.76-1.39,2.36-2.48.6-1.09.9-2.36.9-3.83s-.3-2.73-.9-3.81Z" style="fill:#546a7b;"/><path d="M167.66,24.72v28.46h-4.38v-28.46h4.38Z" style="fill:#546a7b;"/><path d="M185.89,49.64h9.04v3.54h-13.42v-26.73h4.38v23.19Z" style="fill:#546a7b;"/><path d="M196.52,36.83c.88-1.64,2.09-2.92,3.61-3.83,1.52-.91,3.21-1.37,5.06-1.37,1.67,0,3.12.33,4.36.98,1.24.65,2.24,1.47,2.98,2.44v-3.08h4.42v21.19h-4.42v-3.15c-.74,1-1.76,1.83-3.04,2.5-1.28.67-2.74,1-4.38,1-1.82,0-3.49-.47-5-1.4-1.51-.94-2.71-2.24-3.6-3.92-.88-1.68-1.33-3.58-1.33-5.71s.44-4.01,1.33-5.65ZM211.64,38.76c-.6-1.08-1.39-1.9-2.36-2.46-.97-.56-2.03-.85-3.15-.85s-2.18.28-3.15.83c-.97.55-1.76,1.36-2.36,2.42-.6,1.06-.9,2.33-.9,3.79s.3,2.74.9,3.85c.6,1.1,1.4,1.94,2.38,2.52.99.58,2.03.87,3.13.87s2.18-.28,3.15-.85c.97-.56,1.76-1.39,2.36-2.48.6-1.09.9-2.36.9-3.83s-.3-2.73-.9-3.81Z" style="fill:#546a7b;"/><path d="M235.98,32.68c1.32.69,2.35,1.72,3.1,3.08.74,1.36,1.11,3,1.11,4.92v12.5h-4.35v-11.84c0-1.9-.47-3.35-1.42-4.36-.95-1.01-2.24-1.52-3.88-1.52s-2.94.51-3.9,1.52c-.96,1.01-1.44,2.47-1.44,4.36v11.84h-4.38v-21.19h4.38v2.42c.72-.87,1.63-1.55,2.75-2.04,1.12-.49,2.3-.73,3.56-.73,1.67,0,3.16.35,4.48,1.04Z" style="fill:#546a7b;"/><path d="M243.71,36.83c.88-1.64,2.09-2.92,3.61-3.83,1.52-.91,3.22-1.37,5.1-1.37,1.38,0,2.75.3,4.1.9,1.35.6,2.42,1.4,3.21,2.4v-10.23h4.42v28.46h-4.42v-3.19c-.72,1.03-1.71,1.87-2.98,2.54-1.27.67-2.72,1-4.36,1-1.85,0-3.53-.47-5.06-1.4-1.53-.94-2.73-2.24-3.61-3.92-.88-1.68-1.33-3.58-1.33-5.71s.44-4.01,1.33-5.65ZM258.82,38.76c-.6-1.08-1.39-1.9-2.36-2.46-.97-.56-2.03-.85-3.15-.85s-2.18.28-3.15.83c-.97.55-1.76,1.36-2.36,2.42-.6,1.06-.9,2.33-.9,3.79s.3,2.74.9,3.85c.6,1.1,1.4,1.94,2.38,2.52.99.58,2.03.87,3.13.87s2.18-.28,3.15-.85c.97-.56,1.76-1.39,2.36-2.48.6-1.09.9-2.36.9-3.83s-.3-2.73-.9-3.81Z" style="fill:#546a7b;"/><path d="M272.37,24.72v28.46h-4.38v-28.46h4.38Z" style="fill:#546a7b;"/><path d="M279.99,52.16c-1.61-.91-2.88-2.19-3.81-3.85-.92-1.65-1.38-3.57-1.38-5.75s.47-4.06,1.42-5.73c.95-1.67,2.24-2.95,3.88-3.85,1.64-.9,3.47-1.35,5.5-1.35s3.86.45,5.5,1.35c1.64.9,2.94,2.18,3.88,3.85.95,1.67,1.42,3.58,1.42,5.73s-.49,4.06-1.46,5.73c-.97,1.67-2.3,2.96-3.98,3.86-1.68.91-3.53,1.37-5.56,1.37s-3.81-.46-5.42-1.37ZM288.58,48.91c.99-.54,1.79-1.35,2.4-2.42s.92-2.38.92-3.92-.29-2.84-.88-3.9c-.59-1.06-1.37-1.86-2.35-2.4-.97-.54-2.03-.81-3.15-.81s-2.17.27-3.13.81c-.96.54-1.72,1.34-2.29,2.4-.56,1.06-.85,2.37-.85,3.9,0,2.28.58,4.04,1.75,5.29,1.17,1.24,2.63,1.86,4.4,1.86,1.13,0,2.19-.27,3.17-.81Z" style="fill:#546a7b;"/><path d="M305.77,32.55c1.06-.6,2.33-.9,3.79-.9v4.54h-1.12c-1.72,0-3.02.44-3.9,1.31-.88.87-1.33,2.38-1.33,4.54v11.15h-4.38v-21.19h4.38v3.08c.64-1.08,1.49-1.92,2.56-2.52Z" style="fill:#546a7b;"/><path d="M311.54,36.83c.88-1.64,2.09-2.92,3.61-3.83,1.52-.91,3.22-1.37,5.1-1.37,1.38,0,2.75.3,4.1.9,1.35.6,2.42,1.4,3.21,2.4v-10.23h4.42v28.46h-4.42v-3.19c-.72,1.03-1.71,1.87-2.98,2.54-1.27.67-2.72,1-4.36,1-1.85,0-3.53-.47-5.06-1.4-1.53-.94-2.73-2.24-3.61-3.92-.88-1.68-1.33-3.58-1.33-5.71s.44-4.01,1.33-5.65ZM326.65,38.76c-.6-1.08-1.39-1.9-2.36-2.46-.97-.56-2.03-.85-3.15-.85s-2.18.28-3.15.83c-.97.55-1.76,1.36-2.36,2.42-.6,1.06-.9,2.33-.9,3.79s.3,2.74.9,3.85c.6,1.1,1.4,1.94,2.38,2.52.99.58,2.03.87,3.13.87s2.18-.28,3.15-.85c.97-.56,1.76-1.39,2.36-2.48.6-1.09.9-2.36.9-3.83s-.3-2.73-.9-3.81Z" style="fill:#546a7b;"/><path d="M336.05,28.37c-.54-.54-.81-1.2-.81-2s.27-1.46.81-2c.54-.54,1.2-.81,2-.81s1.42.27,1.96.81c.54.54.81,1.21.81,2s-.27,1.46-.81,2c-.54.54-1.19.81-1.96.81s-1.46-.27-2-.81ZM340.21,31.99v21.19h-4.38v-21.19h4.38Z" style="fill:#546a7b;"/><path d="M359.22,32.68c1.32.69,2.35,1.72,3.1,3.08.74,1.36,1.11,3,1.11,4.92v12.5h-4.35v-11.84c0-1.9-.47-3.35-1.42-4.36-.95-1.01-2.24-1.52-3.88-1.52s-2.94.51-3.9,1.52c-.96,1.01-1.44,2.47-1.44,4.36v11.84h-4.38v-21.19h4.38v2.42c.72-.87,1.63-1.55,2.75-2.04,1.12-.49,2.3-.73,3.56-.73,1.67,0,3.16.35,4.48,1.04Z" style="fill:#546a7b;"/><path d="M379.99,32.62c1.27.65,2.26,1.47,2.98,2.44v-3.08h4.42v21.53c0,1.95-.41,3.69-1.23,5.21-.82,1.52-2.01,2.72-3.56,3.6-1.55.87-3.4,1.31-5.56,1.31-2.87,0-5.26-.67-7.15-2.02-1.9-1.35-2.97-3.17-3.23-5.48h4.35c.33,1.1,1.04,1.99,2.13,2.67,1.09.68,2.39,1.02,3.9,1.02,1.77,0,3.2-.54,4.29-1.61,1.09-1.08,1.63-2.64,1.63-4.69v-3.54c-.74,1-1.75,1.84-3.02,2.52-1.27.68-2.71,1.02-4.33,1.02-1.85,0-3.53-.47-5.06-1.4-1.53-.94-2.73-2.24-3.61-3.92-.88-1.68-1.33-3.58-1.33-5.71s.44-4.01,1.33-5.65,2.09-2.92,3.61-3.83c1.52-.91,3.21-1.37,5.06-1.37,1.64,0,3.1.33,4.36.98ZM382.06,38.76c-.6-1.08-1.39-1.9-2.36-2.46-.97-.56-2.03-.85-3.15-.85s-2.18.28-3.15.83c-.97.55-1.76,1.36-2.36,2.42-.6,1.06-.9,2.33-.9,3.79s.3,2.74.9,3.85c.6,1.1,1.4,1.94,2.38,2.52.99.58,2.03.87,3.13.87s2.18-.28,3.15-.85c.97-.56,1.76-1.39,2.36-2.48.6-1.09.9-2.36.9-3.83s-.3-2.73-.9-3.81Z" style="fill:#546a7b;"/><path d="M34.19,34.34l.39,12.01s3.34,5.32,8.49,5.32,8.88-3.92,8.88-7.78v-10.74s-6.53-4.58-8.85-3.94-8.91,5.13-8.91,5.13Z" style="fill:#b85042;"/><polygon points="34.19 34.76 34.19 17.39 43.51 11.1 51.23 16.2 52.59 33.59 43.43 29.72 34.19 34.76" style="fill:#d3d3d3;"/><path d="M77.12,53.18h-3.55v-3.02h3.55c3.31,0,6-2.81,6-6.27v-24.06c0-1.15-.33-2.32-.94-3.34-13.49-9.81-21.1-13.47-22.74-13.47-2.25,0-13.32,6.84-22.83,13.51-.58,1.02-.91,2.21-.91,3.3v24.06c0,3.46,2.69,6.27,6,6.27h26.59v3.02h-26.59c-4.97,0-9.02-4.17-9.02-9.29v-24.06c0-1.73.55-3.61,1.52-5.15l.16-.26.25-.17C53.39,1.03,58.36,0,59.44,0c4.99,0,21.5,11.85,24.75,14.23l.22.16.15.23c1.01,1.55,1.57,3.4,1.57,5.21v24.06c0,5.12-4.04,9.29-9.02,9.29Z" style="fill:#546a7b;"/><path d="M44.44,53.18H9.02c-4.97,0-9.02-4.17-9.02-9.29v-24.06c0-1.73.55-3.61,1.52-5.15l.16-.26.25-.17C20.71,1.03,25.68,0,26.76,0c1.32,0,4.03.6,12.3,5.78l-1.6,2.55c-7.67-4.8-10.03-5.32-10.7-5.32-2.25,0-13.32,6.84-22.83,13.51-.58,1.02-.91,2.21-.91,3.3v24.06c0,3.46,2.69,6.27,6,6.27h35.42c3.31,0,6-2.81,6-6.27v-24.06c0-1.14-.33-2.32-.94-3.33-.86-.62-3.97-2.85-7.66-5.31l1.67-2.51c4.38,2.92,7.96,5.53,8,5.55l.22.16.15.23c1.01,1.55,1.57,3.4,1.57,5.21v24.06c0,5.12-4.04,9.29-9.02,9.29Z" style="fill:#546a7b;"/><path d="M60.78,80.88H25.35c-4.97,0-9.02-4.17-9.02-9.29v-24.06c0-1.76.54-3.59,1.52-5.15l.16-.26.25-.17s4.88-3.43,10.21-6.84l1.62,2.54c-4.57,2.92-8.77,5.84-9.84,6.58-.58,1.02-.91,2.21-.91,3.3v24.06c0,3.46,2.69,6.28,6,6.28h35.42c3.31,0,6-2.81,6-6.28v-24.06c0-1.15-.33-2.32-.94-3.34-13.49-9.81-21.1-13.47-22.74-13.47-.36,0-2.02.28-8.14,3.92l-1.54-2.59c6.48-3.85,8.58-4.35,9.68-4.35,4.99,0,21.5,11.85,24.75,14.23l.22.16.15.23c1.01,1.55,1.57,3.4,1.57,5.21v24.06c0,5.12-4.04,9.29-9.02,9.29Z" style="fill:#546a7b;"/><path d="M109.59,70.94c-.41.78-1.05,1.42-1.95,1.91-.89.49-2.04.74-3.43.74h-3.07v7.04h-2.77v-17.34h5.84c1.3,0,2.4.23,3.3.69s1.57,1.08,2.02,1.86c.45.78.67,1.66.67,2.62,0,.88-.2,1.71-.61,2.49ZM106.57,70.52c.52-.49.78-1.19.78-2.08,0-1.9-1.05-2.84-3.14-2.84h-3.07v5.66h3.07c1.05,0,1.84-.25,2.36-.74Z" style="fill:#b85042;"/><path d="M122.52,67.32c.8.45,1.44,1.11,1.9,2,.46.88.69,1.95.69,3.19v8.11h-2.75v-7.68c0-1.23-.3-2.17-.9-2.83-.6-.66-1.42-.99-2.46-.99s-1.86.33-2.47.99c-.61.66-.91,1.6-.91,2.83v7.68h-2.77v-18.46h2.77v6.31c.47-.58,1.07-1.03,1.79-1.35.72-.32,1.51-.47,2.37-.47,1.02,0,1.93.22,2.74.67Z" style="fill:#b85042;"/><path d="M128.78,64.52c-.34-.35-.51-.78-.51-1.3s.17-.95.51-1.3c.34-.35.76-.52,1.26-.52s.9.17,1.24.52c.34.35.51.78.51,1.3s-.17.95-.51,1.3c-.34.35-.75.52-1.24.52s-.92-.17-1.26-.52ZM131.41,66.87v13.75h-2.77v-13.75h2.77Z" style="fill:#b85042;"/><path d="M137.83,62.15v18.46h-2.77v-18.46h2.77Z" style="fill:#b85042;"/><path d="M141.4,70.01c.56-1.06,1.32-1.89,2.29-2.48.96-.59,2.03-.89,3.2-.89,1.05,0,1.97.21,2.76.64.79.42,1.42.95,1.89,1.58v-2h2.8v13.75h-2.8v-2.05c-.47.65-1.11,1.19-1.92,1.62-.81.43-1.74.65-2.77.65-1.15,0-2.21-.3-3.16-.91-.96-.61-1.72-1.46-2.27-2.54s-.84-2.32-.84-3.71.28-2.6.84-3.67ZM150.96,71.26c-.38-.7-.88-1.23-1.5-1.6-.62-.37-1.28-.55-1.99-.55s-1.38.18-1.99.54c-.62.36-1.12.88-1.5,1.57-.38.69-.57,1.51-.57,2.46s.19,1.78.57,2.5c.38.72.88,1.26,1.51,1.63.62.37,1.29.56,1.98.56s1.38-.18,1.99-.55c.62-.37,1.12-.9,1.5-1.61.38-.71.57-1.53.57-2.48s-.19-1.77-.57-2.47Z" style="fill:#b85042;"/><path d="M157.89,70.01c.56-1.06,1.32-1.89,2.29-2.48.96-.59,2.04-.89,3.22-.89.88,0,1.74.2,2.59.59.85.39,1.53.91,2.03,1.56v-6.64h2.8v18.46h-2.8v-2.07c-.45.67-1.08,1.21-1.89,1.65-.8.43-1.72.65-2.76.65-1.17,0-2.23-.3-3.2-.91-.97-.61-1.73-1.46-2.29-2.54s-.84-2.32-.84-3.71.28-2.6.84-3.67ZM167.45,71.26c-.38-.7-.88-1.23-1.5-1.6-.62-.37-1.28-.55-1.99-.55s-1.38.18-1.99.54c-.62.36-1.12.88-1.5,1.57-.38.69-.57,1.51-.57,2.46s.19,1.78.57,2.5c.38.72.88,1.26,1.51,1.63.62.37,1.29.56,1.98.56s1.38-.18,1.99-.55c.62-.37,1.12-.9,1.5-1.61.38-.71.57-1.53.57-2.48s-.19-1.77-.57-2.47Z" style="fill:#b85042;"/><path d="M186.66,74.8h-10.24c.08,1.1.48,1.98,1.19,2.65.71.67,1.59,1,2.63,1,1.49,0,2.55-.64,3.16-1.92h2.99c-.41,1.26-1.14,2.3-2.2,3.11-1.06.81-2.38,1.21-3.95,1.21-1.28,0-2.43-.3-3.44-.89-1.01-.59-1.81-1.42-2.38-2.5s-.86-2.32-.86-3.73.28-2.66.84-3.73,1.35-1.9,2.36-2.48c1.01-.58,2.18-.87,3.49-.87s2.39.28,3.38.85,1.76,1.36,2.31,2.38c.55,1.02.83,2.2.83,3.53,0,.52-.03.98-.1,1.4ZM183.86,72.51c-.02-1.05-.38-1.89-1.09-2.52-.71-.63-1.6-.95-2.65-.95-.96,0-1.78.31-2.46.94s-1.09,1.47-1.22,2.53h7.42Z" style="fill:#b85042;"/><path d="M192.25,62.15v18.46h-2.77v-18.46h2.77Z" style="fill:#b85042;"/><path d="M200.6,67.29c.81-.43,1.73-.65,2.75-.65,1.17,0,2.23.3,3.2.89.96.59,1.72,1.42,2.27,2.48s.83,2.29.83,3.67-.28,2.62-.83,3.71-1.31,1.94-2.27,2.54c-.97.61-2.03.91-3.2.91-1.02,0-1.93-.21-2.72-.64-.79-.42-1.44-.95-1.95-1.58v8.53h-2.77v-20.28h2.77v2.02c.47-.63,1.11-1.16,1.92-1.6ZM206.25,71.22c-.38-.69-.88-1.21-1.51-1.57-.62-.36-1.29-.54-2.01-.54s-1.36.18-1.98.55c-.62.37-1.13.9-1.51,1.6-.38.7-.57,1.52-.57,2.47s.19,1.78.57,2.48c.38.71.88,1.24,1.51,1.61.62.37,1.29.55,1.98.55s1.38-.19,2.01-.56c.62-.37,1.13-.92,1.51-1.63.38-.72.57-1.55.57-2.5s-.19-1.77-.57-2.46Z" style="fill:#b85042;"/><path d="M222.07,67.32c.8.45,1.44,1.11,1.9,2,.46.88.69,1.95.69,3.19v8.11h-2.75v-7.68c0-1.23-.3-2.17-.9-2.83-.6-.66-1.42-.99-2.46-.99s-1.86.33-2.47.99c-.61.66-.91,1.6-.91,2.83v7.68h-2.77v-18.46h2.77v6.31c.47-.58,1.07-1.03,1.79-1.35.72-.32,1.51-.47,2.37-.47,1.02,0,1.93.22,2.74.67Z" style="fill:#b85042;"/><path d="M228.33,64.52c-.34-.35-.51-.78-.51-1.3s.17-.95.51-1.3c.34-.35.76-.52,1.26-.52s.9.17,1.24.52c.34.35.51.78.51,1.3s-.17.95-.51,1.3c-.34.35-.75.52-1.24.52s-.92-.17-1.26-.52ZM230.96,66.87v13.75h-2.77v-13.75h2.77Z" style="fill:#b85042;"/><path d="M234.52,70.01c.56-1.06,1.32-1.89,2.29-2.48.96-.59,2.03-.89,3.2-.89,1.05,0,1.97.21,2.76.64.79.42,1.42.95,1.89,1.58v-2h2.8v13.75h-2.8v-2.05c-.47.65-1.11,1.19-1.92,1.62-.81.43-1.74.65-2.77.65-1.15,0-2.21-.3-3.16-.91-.96-.61-1.72-1.46-2.27-2.54s-.84-2.32-.84-3.71.28-2.6.84-3.67ZM244.08,71.26c-.38-.7-.88-1.23-1.5-1.6-.62-.37-1.28-.55-1.99-.55s-1.38.18-1.99.54c-.62.36-1.12.88-1.5,1.57-.38.69-.57,1.51-.57,2.46s.19,1.78.57,2.5c.38.72.88,1.26,1.51,1.63.62.37,1.29.56,1.98.56s1.38-.18,1.99-.55c.62-.37,1.12-.9,1.5-1.61.38-.71.57-1.53.57-2.48s-.19-1.77-.57-2.47Z" style="fill:#b85042;"/></g></svg>